<svg id="canvas" height="auto" xmlns="http://www.w3.org/2000/svg" version="1.1" xmlns:xlink="http://www.w3.org/1999/xlink" xmlns:svgjs="http://svgjs.dev/svgjs" viewBox="0 0 900 512" width="auto" style="width: auto; height: auto;"><rect width="900" height="512" fill="#000000"/><defs><linearGradient id="SvgjsLinearGradient1006"><stop stop-color="#ce80ff" offset="0"/><stop stop-color="#ff80b1" offset="1"/></linearGradient><linearGradient id="SvgjsLinearGradient1007"><stop stop-color="#80ff9c" offset="0"/><stop stop-color="#80e3ff" offset="1"/></linearGradient><linearGradient id="SvgjsLinearGradient1008"><stop stop-color="#9d80ff" offset="0"/><stop stop-color="#ff80e2" offset="1"/></linearGradient><linearGradient id="SvgjsLinearGradient1009"><stop stop-color="#ffe580" offset="0"/><stop stop-color="#9aff80" offset="1"/></linearGradient><linearGradient id="SvgjsLinearGradient1010"><stop stop-color="#fcff80" offset="0"/><stop stop-color="#80ff82" offset="1"/></linearGradient><linearGradient id="SvgjsLinearGradient1011"><stop stop-color="#ff80ef" offset="0"/><stop stop-color="#ff9080" offset="1"/></linearGradient></defs><style>g:nth-of-type(6n){fill-opacity:.25;}g:nth-of-type(6n + 1){fill-opacity:.25;}g:nth-of-type(6n + 2){fill-opacity:1;}g:nth-of-type(6n + 3){fill-opacity:1;}g:nth-of-type(6n + 4){fill-opacity:.5;}g:nth-of-type(6n + 5){fill-opacity:.35;}</style><g transform="matrix(1,0,0,1,204.6092489171484,147.13155476625985)"><path d="M101.94031759262599,-21.81612641477182C104.02057881476252,3.325114311309406,100.34581331578373,50.40523495375399,81.1859930106958,70.99809833977079C62.02617270560786,91.5909617257876,12.241428105149723,113.83356608875452,-13.018604237901613,101.74105390132897C-38.27863658095295,89.64854171390341,-67.2646382548973,26.564856025527735,-70.37420104761222,-1.5569747847825397C-73.48376384032713,-29.678805595092815,-54.85575211510592,-53.941202421877,-31.675980994191114,-66.98993096053267C-8.496209873276307,-80.03865949918836,46.43504258007377,-87.37831344101005,68.70442567787661,-79.84934601671658C90.97380877567946,-72.32037859242311,99.86005637048946,-46.957367140853044,101.94031759262599,-21.81612641477182C104.02057881476252,3.325114311309406,100.34581331578373,50.40523495375399,81.1859930106958,70.99809833977079" fill="url(#SvgjsLinearGradient1006)"/></g><g transform="matrix(1,0,0,1,138.26525278349558,433.85638104832697)"><path d="M109.36288307285027,18.26547533053092C106.43466791097332,46.13276811270261,87.3650746041732,84.54221550692124,66.51580620284332,95.79622470923134C45.66653780151345,107.05023391154144,14.334851883089971,105.9018956743581,-15.73272733512897,85.78953054439154C-45.80030655334791,65.67716541442498,-105.82055932022352,5.8566076907672375,-113.88966910647032,-24.877966070568064C-121.95877889271712,-55.61253983190336,-97.14318043270566,-90.86298437141517,-64.14738605260976,-98.61791202362028C-31.151591672513867,-106.37283967582539,55.16671898652838,-90.88809654282397,84.08509717410504,-71.40753198379878C113.00347536168171,-51.92696742477358,112.29109823472722,-9.60181745164077,109.36288307285027,18.26547533053092C106.43466791097332,46.13276811270261,87.3650746041732,84.54221550692124,66.51580620284332,95.79622470923134" fill="url(#SvgjsLinearGradient1007)"/></g><g transform="matrix(1,0,0,1,464.57807809617094,70.14756035760968)"><path d="M93.2557822404568,-15.91582615876749C97.9172432095588,13.699711768688395,95.27569050301884,60.8802615995816,68.6453361434776,81.07110672436534C42.01498178393638,101.26195184914907,-43.95383265000993,119.0404935566383,-66.52634391679057,105.22924458993492C-89.0988551835712,91.41799562323155,-64.40344446463406,30.175577085541537,-66.78973145720624,-1.7963870758549234C-69.17601844977843,-33.76835123725138,-98.75511616990232,-70.79825141769132,-80.84406587222368,-86.60254037844383C-62.93301557454504,-102.40682933919635,11.659928976752173,-108.4032398769827,40.67657032886559,-96.62212084036997C69.693211680979,-84.84100180375725,88.59432127135479,-45.53136408622338,93.2557822404568,-15.91582615876749C97.9172432095588,13.699711768688395,95.27569050301884,60.8802615995816,68.6453361434776,81.07110672436534" fill="url(#SvgjsLinearGradient1008)"/></g><g transform="matrix(1,0,0,1,480.204517042327,440.3649457891663)"><path d="M117.48901485321701,-6.887384641072746C116.92563100158107,24.65441039002262,71.42620294771571,74.15872532504753,46.61969689018424,89.36485595654622C21.81319083265276,104.57098658804492,-8.888552277686873,97.31568433757955,-31.350021491971837,84.3493991479194C-53.811490706256805,71.38311395825924,-86.21267458789374,40.05913473964581,-88.14911839552555,11.567144818585277C-90.08556220315735,-16.92484510247526,-65.99353740368358,-68.02703053700863,-42.96868433776266,-86.60254037844383C-19.94383127184175,-105.17805021987904,23.257050134836657,-113.17177351958782,49.999999999999936,-99.88591423002597C76.74294986516321,-86.60005494046413,118.05239870485296,-38.42917967216811,117.48901485321701,-6.887384641072746C116.92563100158107,24.65441039002262,71.42620294771571,74.15872532504753,46.61969689018424,89.36485595654622" fill="url(#SvgjsLinearGradient1009)"/></g><g transform="matrix(1,0,0,1,732.5758377033264,154.20124472171403)"><path d="M90.59367695912546,-13.607033072615621C91.19714483365628,15.251100663991718,76.80834255086603,51.49137462729537,50.28740849085792,70.58748548685008C23.766474430849808,89.6835963464048,-48.6454621180433,110.01155934342339,-68.5319274009232,100.96963208471266C-88.41839268380309,91.92770482600193,-73.07547795893014,49.715923733024425,-69.03138320642145,16.335921934585734C-64.98728845391277,-17.044079863852957,-63.550356294220194,-79.49417222802288,-44.26735888587112,-99.31037870591949C-24.984361477522047,-119.1265851838161,24.189761936173547,-116.84520787167793,46.66660124367298,-102.56131693279396C69.1434405511724,-88.27742599390999,89.99020908459464,-42.465166809222964,90.59367695912546,-13.607033072615621C91.19714483365628,15.251100663991718,76.80834255086603,51.49137462729537,50.28740849085792,70.58748548685008" fill="url(#SvgjsLinearGradient1010)"/></g><g transform="matrix(1,0,0,1,706.5906018602075,331.5414571325722)"><path d="M99.99958438052528,-12.733988023466555C101.5035664494311,8.248467548925689,63.50329115040756,43.86911580123696,40.34974522247522,57.97856084317402C17.19619929454288,72.08800588511109,-18.208348758000835,81.58577570201818,-38.921691187068774,71.92268222815585C-59.63503361613671,62.25958875429352,-84.95506226200962,23.32691146363534,-83.93030935193242,1.4210854715202004e-14C-82.90555644185523,-23.326911463635312,-51.982534086767735,-56.71942445512619,-32.77317372660563,-68.0387865536561C-13.563813366443519,-79.358148652186,9.197059791185072,-77.13363901287771,31.32585280904022,-67.91617259117945C53.45464582689537,-58.69870616948119,98.49560231161945,-33.7164435958588,99.99958438052528,-12.733988023466555C101.5035664494311,8.248467548925689,63.50329115040756,43.86911580123696,40.34974522247522,57.97856084317402" fill="url(#SvgjsLinearGradient1011)"/></g></svg>